<?xml version="1.0" standalone="no"?><!DOCTYPE svg PUBLIC "-//W3C//DTD SVG 20010904//EN"
 "http://www.w3.org/TR/2001/REC-SVG-20010904/DTD/svg10.dtd"><svg version="1.0" xmlns="http://www.w3.org/2000/svg" width="880.000000pt" height="880.000000pt" viewBox="0 0 880.000000 880.000000" preserveAspectRatio="xMidYMid meet"><metadata>Created by potrace 1.14, written by Peter Selinger 2001-2017</metadata><g transform="translate(0.000000,880.000000) scale(0.100000,-0.100000)" fill="#000000" stroke="none"><path d="M3977 8603 c-108 -82 -208 -157 -223 -168 -15 -11 -158 -118 -317
-237 -159 -120 -293 -218 -297 -218 -5 0 -10 -4 -12 -8 -1 -4 -75 -62 -163
-127 -88 -66 -162 -122 -165 -125 -3 -3 -27 -21 -55 -40 -27 -19 -59 -42 -70
-52 -16 -14 -159 -121 -274 -205 -13 -10 -30 -24 -37 -30 -7 -7 -17 -13 -23
-13 -6 0 -11 -4 -11 -10 0 -5 -4 -10 -10 -10 -6 0 -18 -8 -28 -17 -26 -25 -52
-45 -87 -67 -17 -11 -35 -24 -41 -30 -6 -6 -22 -18 -34 -26 -12 -8 -32 -23
-44 -33 -11 -9 -97 -74 -190 -142 -92 -69 -181 -135 -196 -148 -15 -12 -40
-31 -55 -42 -15 -11 -103 -76 -195 -145 -92 -69 -180 -134 -195 -145 -228
-168 -315 -239 -315 -255 0 -17 86 -94 181 -163 56 -40 525 -389 539 -400 8
-7 39 -29 69 -51 30 -21 59 -42 65 -47 53 -44 103 -79 114 -79 6 0 12 -4 12
-9 0 -4 28 -28 63 -52 34 -23 64 -46 67 -49 7 -8 261 -194 290 -212 41 -26 54
-20 190 81 41 30 77 58 80 61 3 3 13 10 22 15 33 20 813 608 820 619 5 6 8 7
8 1 0 -7 3 -7 8 0 4 6 34 30 67 55 33 25 62 48 63 53 2 4 10 7 17 7 7 0 15 3
17 8 2 4 37 32 78 62 41 30 80 59 86 65 7 5 94 71 194 145 111 82 188 147 197
165 14 25 16 96 19 475 5 817 2 1595 -6 1595 -3 0 -10 58 -11 78 0 9 -4 17 -8
17 -5 0 -96 -66 -204 -147z"/><path d="M4559 8733 c-1 -10 -3 -490 -4 -1068 -1 -819 1 -1056 11 -1075 11
-22 125 -120 140 -120 3 0 11 -6 19 -12 16 -17 42 -37 86 -68 19 -13 39 -28
44 -32 13 -11 308 -229 335 -248 23 -16 198 -145 215 -158 6 -4 28 -21 50 -37
22 -17 44 -33 50 -38 47 -35 131 -97 160 -117 20 -14 42 -30 48 -35 10 -9 403
-299 476 -353 13 -9 30 -23 37 -29 7 -7 17 -13 23 -13 5 0 14 -6 18 -12 14
-22 99 -77 126 -82 18 -3 41 5 74 27 26 17 50 34 53 37 3 3 86 65 185 138 99
73 188 139 198 147 9 8 21 15 26 15 5 0 11 7 15 15 3 8 12 15 20 15 8 0 16 4
18 8 2 5 41 36 88 70 47 34 90 66 95 70 6 4 26 19 45 32 19 14 37 27 40 30 3
3 52 40 110 83 58 42 110 80 115 85 6 4 71 52 145 107 182 134 220 166 220
187 0 23 -33 55 -125 118 -27 19 -61 45 -75 58 -13 12 -28 22 -32 22 -3 0 -13
6 -20 13 -7 7 -42 34 -78 60 -36 26 -76 55 -89 64 -45 33 -246 184 -262 196
-8 7 -31 23 -50 37 -19 13 -38 28 -44 32 -5 5 -116 87 -245 182 -129 96 -251
187 -271 203 -20 15 -46 35 -59 43 -17 12 -184 135 -225 167 -6 5 -28 21 -50
37 -22 17 -42 32 -45 35 -3 4 -25 19 -50 36 -25 16 -52 35 -60 42 -43 38 -76
63 -82 63 -5 0 -16 8 -26 18 -30 27 -59 50 -80 61 -11 6 -26 17 -34 24 -7 7
-47 38 -88 68 -41 29 -82 59 -90 66 -30 25 -88 68 -110 83 -12 8 -30 22 -41
30 -41 32 -72 55 -334 249 -148 110 -274 204 -280 208 -38 31 -285 210 -303
221 -28 16 -32 15 -33 -5z"/><path d="M3052 4680 c-12 -5 -28 -14 -35 -20 -11 -11 -128 -91 -372 -258 -60
-41 -131 -90 -156 -108 -26 -19 -51 -34 -57 -34 -6 0 -12 -4 -14 -8 -1 -5 -93
-69 -203 -143 -110 -74 -202 -136 -205 -139 -15 -15 -71 -50 -80 -50 -5 0 -10
-3 -10 -7 0 -5 -13 -17 -29 -28 -36 -23 -45 -52 -27 -80 8 -11 53 -47 101 -80
48 -33 95 -67 104 -75 9 -8 29 -21 44 -27 15 -7 27 -17 27 -23 0 -5 6 -10 13
-10 7 0 22 -8 33 -17 11 -10 27 -22 36 -28 9 -5 37 -25 63 -43 26 -18 84 -58
129 -89 44 -31 131 -91 191 -133 61 -42 155 -107 210 -145 55 -38 102 -73 103
-77 2 -4 7 -8 12 -8 7 0 263 -173 300 -203 14 -12 57 -41 91 -62 17 -10 171
-117 308 -213 126 -88 153 -106 177 -122 13 -8 100 -68 193 -133 191 -132 200
-137 200 -110 0 10 1 39 1 64 0 26 0 51 -1 55 -1 5 0 14 1 19 6 31 4 102 -4
97 -5 -3 -6 0 -2 6 10 17 13 93 4 98 -5 3 -5 10 -2 16 9 14 9 1244 0 1290 -7
38 -39 71 -131 139 -33 24 -64 47 -70 52 -23 17 -107 79 -205 151 -58 42 -116
84 -129 94 -13 9 -71 52 -130 94 -58 43 -115 85 -126 93 -11 9 -60 45 -110 81
-49 36 -98 71 -108 79 -9 8 -22 15 -27 15 -6 0 -10 4 -10 8 0 10 -45 32 -63
31 -7 0 -22 -4 -35 -9z"/><path d="M5635 4683 c-16 -3 -299 -207 -352 -253 -7 -5 -27 -20 -45 -33 -19
-12 -40 -28 -48 -35 -22 -19 -299 -225 -318 -237 -10 -5 -19 -12 -22 -15 -3
-3 -41 -32 -85 -65 -44 -33 -81 -63 -83 -67 -2 -4 -10 -8 -17 -8 -7 0 -15 -3
-17 -7 -1 -5 -19 -21 -37 -36 -19 -16 -40 -39 -46 -50 -13 -25 -14 -1627 -1
-1664 10 -29 12 -29 67 10 26 17 82 56 125 86 44 30 81 58 82 63 2 4 7 8 12 8
8 0 50 28 236 158 61 42 137 95 170 117 32 22 61 43 62 48 2 4 10 7 17 7 8 0
18 6 22 13 4 6 16 17 25 22 10 6 43 28 75 50 291 201 355 245 364 245 5 0 9 4
9 8 0 5 24 24 53 42 28 19 54 38 55 42 2 4 10 8 18 8 8 0 14 5 14 10 0 6 6 10
14 10 8 0 16 3 18 8 2 4 28 24 58 45 30 20 75 51 100 68 25 17 92 64 150 103
58 39 107 73 110 76 3 3 12 10 21 15 10 6 82 55 160 109 79 55 167 115 194
134 60 41 85 68 85 93 0 12 -33 43 -92 87 -112 82 -493 353 -516 367 -10 6
-19 13 -22 16 -3 3 -27 21 -55 39 -27 19 -51 37 -53 42 -2 4 -10 8 -17 8 -7 0
-15 4 -17 8 -1 4 -40 34 -85 65 -46 32 -88 64 -95 70 -7 7 -25 18 -40 26 -15
8 -36 21 -45 30 -45 40 -175 124 -185 120 -2 -1 -12 -4 -23 -6z"/><path d="M2667 2396 c-3 -8 3 -23 14 -34 10 -12 19 -24 19 -27 0 -4 11 -21 25
-39 14 -18 25 -38 25 -44 0 -6 4 -12 8 -14 5 -1 103 -145 219 -318 115 -173
261 -391 324 -485 62 -93 117 -171 121 -173 4 -2 8 -7 8 -12 0 -7 208 -321
230 -347 5 -7 10 -15 10 -18 0 -3 5 -11 10 -18 6 -7 51 -73 100 -147 49 -74
93 -139 97 -145 5 -5 66 -97 137 -203 71 -107 134 -199 141 -205 6 -7 14 -20
18 -29 10 -28 24 -21 30 14 3 18 5 296 3 618 -3 504 -5 590 -19 622 -13 32
-57 64 -344 255 -180 120 -332 221 -338 226 -5 4 -102 68 -215 142 -113 74
-212 139 -220 145 -17 12 -136 90 -160 105 -8 6 -52 33 -95 61 -117 75 -142
87 -148 70z"/><path d="M6040 2395 c-7 -8 -18 -15 -25 -15 -8 0 -15 -4 -17 -8 -3 -9 -93 -72
-103 -72 -3 0 -15 -8 -26 -18 -10 -11 -32 -25 -47 -33 -15 -8 -29 -17 -32 -20
-3 -3 -25 -19 -50 -34 -25 -16 -118 -77 -208 -137 -90 -59 -167 -108 -172
-108 -4 0 -10 -4 -12 -8 -1 -4 -46 -35 -98 -69 -52 -34 -104 -69 -115 -77 -11
-8 -24 -15 -29 -15 -5 1 -12 -3 -15 -8 -5 -7 -268 -182 -447 -299 -33 -21 -67
-50 -75 -64 -16 -27 -21 -271 -20 -915 0 -326 1 -354 15 -358 5 -1 25 21 44
48 19 28 39 51 44 53 4 2 8 8 8 13 0 6 17 33 38 62 72 97 562 823 562 832 0 3
8 15 18 26 11 10 25 32 33 47 8 15 16 29 19 32 14 14 90 132 90 139 0 5 3 11
8 13 4 2 27 35 52 73 25 39 48 75 53 80 11 15 177 268 177 271 0 2 31 49 68
106 95 143 213 331 237 376 11 21 28 50 38 65 9 14 17 29 17 32 0 10 -18 5
-30 -10z"/></g></svg>