<svg width="45" height="45" viewBox="0 0 45 45" fill="none" xmlns="http://www.w3.org/2000/svg"><path d="M20.7188 28.0313L17.25 31.5C16.5187 32.2313 15.3562 32.2313 14.6062 31.5188C14.4 31.3125 14.1938 31.125 13.9875 30.9188C12.0563 28.9688 10.3125 26.925 8.75625 24.7875C7.21875 22.65 5.98125 20.5125 5.08125 18.3938C4.2 16.2563 3.75 14.2125 3.75 12.2625C3.75 10.9875 3.975 9.76875 4.425 8.64375C4.875 7.5 5.5875 6.45 6.58125 5.5125C7.78125 4.33125 9.09375 3.75 10.4813 3.75C11.0063 3.75 11.5312 3.8625 12 4.0875C12.4875 4.3125 12.9188 4.65 13.2563 5.1375L17.6063 11.2688C17.9438 11.7375 18.1875 12.1688 18.3562 12.5813C18.525 12.975 18.6188 13.3688 18.6188 13.725C18.6188 14.175 18.4875 14.625 18.225 15.0563C17.9813 15.4875 17.625 15.9375 17.175 16.3875L15.75 17.8688C15.5437 18.075 15.45 18.3188 15.45 18.6188C15.45 18.7688 15.4688 18.9 15.5063 19.05C15.5625 19.2 15.6188 19.3125 15.6563 19.425C15.9938 20.0438 16.575 20.85 17.4 21.825C18.2437 22.8 19.1437 23.7938 20.1187 24.7875C20.3062 24.975 20.5125 25.1625 20.7 25.35C21.45 26.0813 21.4688 27.2813 20.7188 28.0313Z" fill="#1C1C1C"/><path d="M41.1937 34.3688C41.1937 34.8938 41.1 35.4375 40.9125 35.9625C40.8562 36.1125 40.8 36.2625 40.725 36.4125C40.4062 37.0875 39.9938 37.725 39.45 38.325C38.5313 39.3375 37.5187 40.0688 36.375 40.5375C36.3562 40.5375 36.3375 40.5562 36.3188 40.5562C35.2125 41.0062 34.0125 41.25 32.7188 41.25C30.8063 41.25 28.7625 40.8 26.6062 39.8813C24.45 38.9625 22.2937 37.725 20.1562 36.1688C19.425 35.625 18.6938 35.0812 18 34.5L24.1312 28.3688C24.6562 28.7625 25.125 29.0625 25.5187 29.2687C25.6125 29.3063 25.725 29.3625 25.8562 29.4187C26.0062 29.475 26.1562 29.4937 26.325 29.4937C26.6437 29.4937 26.8875 29.3813 27.0937 29.175L28.5187 27.7688C28.9875 27.3 29.4375 26.9438 29.8687 26.7188C30.3 26.4563 30.7312 26.325 31.2 26.325C31.5562 26.325 31.9312 26.4 32.3437 26.5688C32.7562 26.7375 33.1875 26.9813 33.6563 27.3L39.8625 31.7063C40.35 32.0438 40.6875 32.4375 40.8937 32.9062C41.0812 33.375 41.1937 33.8438 41.1937 34.3688Z" fill="#1C1C1C"/></svg>