<svg width="45" height="45" viewBox="0 0 45 45" fill="none" xmlns="http://www.w3.org/2000/svg"><path d="M30.2626 5.55L13.3313 11.175C1.9501 14.9813 1.9501 21.1875 13.3313 24.975L18.3563 26.6438L20.0251 31.6687C23.8126 43.05 30.0376 43.05 33.8251 31.6687L39.4688 14.7563C41.9813 7.1625 37.8563 3.01875 30.2626 5.55ZM30.8626 15.6375L23.7376 22.8C23.4563 23.0812 23.1001 23.2125 22.7438 23.2125C22.3876 23.2125 22.0313 23.0812 21.7501 22.8C21.2064 22.2563 21.2064 21.3563 21.7501 20.8125L28.8751 13.65C29.4188 13.1063 30.3188 13.1063 30.8626 13.65C31.4063 14.1938 31.4063 15.0938 30.8626 15.6375Z" fill="#1C1C1C"/></svg>