<svg width="45" height="45" viewBox="0 0 45 45" fill="none" xmlns="http://www.w3.org/2000/svg"><path d="M31.875 6.5625H13.125C7.5 6.5625 3.75 9.375 3.75 15.9375V29.0625C3.75 35.625 7.5 38.4375 13.125 38.4375H31.875C37.5 38.4375 41.25 35.625 41.25 29.0625V15.9375C41.25 9.375 37.5 6.5625 31.875 6.5625ZM32.7562 17.9813L26.8875 22.6688C25.65 23.6625 24.075 24.15 22.5 24.15C20.925 24.15 19.3312 23.6625 18.1125 22.6688L12.2438 17.9813C11.6438 17.4938 11.55 16.5937 12.0187 15.9937C12.5062 15.3937 13.3875 15.2812 13.9875 15.7687L19.8563 20.4562C21.2812 21.6 23.7 21.6 25.125 20.4562L30.9938 15.7687C31.5938 15.2812 32.4937 15.375 32.9625 15.9937C33.45 16.5937 33.3562 17.4938 32.7562 17.9813Z" fill="#1C1C1C"/></svg>